<?xml version="1.0" standalone="no"?>
<!DOCTYPE svg PUBLIC "-//W3C//DTD SVG 20010904//EN"
 "http://www.w3.org/TR/2001/REC-SVG-20010904/DTD/svg10.dtd">
<svg version="1.0" xmlns="http://www.w3.org/2000/svg"
 width="530.000000pt" height="579.000000pt" viewBox="0 0 530.000000 579.000000"
 preserveAspectRatio="xMidYMid meet">

<g transform="translate(0.000000,579.000000) scale(0.100000,-0.100000)"
fill="#000000" stroke="none">
<path d="M2980 5779 c-616 -38 -1517 -207 -2183 -410 -112 -34 -157 -67 -182
-134 -16 -41 -15 -113 14 -1222 18 -648 36 -1202 42 -1232 15 -73 63 -126 135
-147 49 -14 59 -14 107 0 64 19 113 66 131 127 11 37 9 205 -15 1049 -16 553
-28 1052 -26 1110 l2 104 179 48 c99 26 290 73 425 103 1618 361 2726 280
3074 -225 28 -40 32 -54 35 -135 11 -238 -121 -463 -423 -722 -490 -422 -1478
-1060 -3770 -2438 -237 -142 -445 -272 -463 -289 -21 -20 -38 -50 -48 -83 -14
-48 -14 -58 0 -106 19 -65 66 -113 129 -132 39 -11 70 -11 209 1 583 50 1143
157 1776 338 427 122 891 232 906 215 2 -2 -1 -44 -6 -94 -14 -133 -4 -510 17
-625 85 -470 299 -740 663 -837 91 -25 111 -27 337 -27 214 -1 251 2 345 22
460 101 733 328 805 670 23 108 18 316 -11 415 -4 11 0 17 10 17 28 0 85 60
96 101 27 99 -46 199 -146 199 -37 0 -639 -176 -669 -196 -13 -8 -34 -36 -46
-60 -42 -88 3 -186 98 -214 39 -12 52 -10 158 20 63 18 118 30 122 27 3 -4 8
-48 11 -100 8 -151 -27 -239 -128 -330 -129 -117 -374 -187 -645 -187 -219 1
-346 39 -436 131 -47 49 -105 150 -134 234 -73 215 -83 570 -28 942 19 130 12
171 -38 227 -79 91 -239 97 -603 25 -195 -39 -454 -104 -751 -189 -132 -38
-305 -85 -385 -105 -222 -56 -565 -125 -549 -111 8 7 106 68 219 136 342 206
956 581 1315 805 1367 852 1960 1290 2217 1635 161 217 241 436 241 665 0 188
-38 293 -162 447 -294 367 -854 552 -1646 547 -104 -1 -251 -6 -325 -10z"/>
</g>
</svg>
